<?xml version="1.0" encoding="UTF-8"?><svg id="Layer_2" xmlns="http://www.w3.org/2000/svg" viewBox="0 0 312.27 411.97"><defs><style>.cls-1{fill:#19182d;}</style></defs><g id="Layer_1-2"><path class="cls-1" d="M311.2,331.52l-.29-.29.13-.39c.31-.9.28-1.87-.09-2.73l-32.05-75.11v-49.23c0-.07-.02-.16-.04-.26,0-.03-.01-.06-.01-.1-.03-.1-.08-.2-.14-.29l-.07-.09c-.05-.06-.09-.13-.21-.22l-.11-.11-.09-.03-.04-.02s-.06-.02-.14-.05c-.07-.02-.14-.04-.21-.05-.04,0-.07-.01-.11-.02l-40.26-3.22-.14-.41c-.21-.62-.43-1.25-.64-1.86l-.09-.25c-.74-2.14-1.51-4.35-2.08-6.47l-.03-.07-.1-.31.15-.25c.12-.2.18-.41.19-.65.12-2.38.2-4.92-.16-7.44-.17-1.18-.45-2.27-.86-3.33l-.19-.47c-.39-.99-.8-2.01-.62-3.21.1-.64.28-1.26.46-1.86.15-.5.29-.97.38-1.46.22-1.18.3-2.24.25-3.25-.11-2.04-.65-3.99-1.61-5.8l-.09-.17.03-.34c-.09-3.31-.26-6.03-.54-8.55l-.02-.15.05-.14c.35-1.01.58-2.07.69-3.13l.05-.45.44-.12c7.16-1.89,11.73-4.77,14.36-9.07,2.73-4.47,1.34-8.15-.13-12.05-.55-1.47-1.13-2.99-1.52-4.64l-.05-.2.07-.19c.72-1.91,3.09-8.82,3.11-17.49v-.18s.09-.15.09-.15c2.61-4.5,4.4-9.96,5.18-15.79l.18-1.33.24-3.58v-.29c.04-1.17.05-2.18.02-3.09-.22-6.98-1.98-13.99-5.06-20.27l-.11-.23.07-.25c.12-.41.08-.86-.12-1.2-.16-.28-.41-.47-.74-.55-3.87-1-7.95-1.66-12.15-1.97l-.94-.07.38-.86c.22-.49.44-.98.66-1.47.8-1.75,1.62-3.56,2.13-5.4.46-1.67,1.25-5.89-1.34-8.83-.24-.27-.51-.53-.77-.78-.24-.23-.48-.47-.71-.71-.19-.21-.37-.42-.56-.64-.3-.36-.59-.7-.91-.99-.97-.87-2.42-1.34-4.06-1.34-.45,0-.91.04-1.36.11-2.01.32-3.9,1.23-5.72,2.11l-.56.27-.3-.55c-.58-1.05-1.92-1.42-2.99-1.42-.36,0-.72.04-1.07.12-1.66.39-3.11,1.52-4.39,2.51l-.68.53-.33-.8c-.78-1.86-3.04-3.16-5.51-3.16-.33,0-.66.02-.97.07-1.01.15-2.02.53-2.99,1.11l-.51.31-.36-.48c-11.39-15.4-25.65-26.06-42.38-31.67-9.14-3.07-19.08-4.62-29.56-4.62-24.47,0-52.62,8.43-83.67,25.05C12.36,43.57,3.4,92.43,14.7,128.97c6.72,21.7,21.33,42.06,41.16,57.35l.66.51L5.95,228.22l-.17.03c-1.7.31-3.03,1.76-3.3,3.6l-.97,6.53c-2,13.47-2.02,27.14-.07,40.63l.84,5.78c.45,3.14,2.77,5.52,5.62,5.8l6.46.63-.88,3.23-.03.13c-3.99,18.61-4.35,38.38-1.05,57.17l.42,2.39c.43,2.46,2.39,4.24,4.66,4.24.14,0,.29,0,.43-.02l1.82-.18,18.96,52.99c.17.49.64.81,1.15.81.07,0,.14,0,.21-.02.36-.06.68-.29.86-.62l.28-.5.53.2c.5.19,1.01.29,1.52.29.24,0,.49-.02.73-.06l264.51-46.36c2.17-.38,3.75-2.41,3.75-4.82v-25.97c0-.98-.38-1.9-1.07-2.59ZM244.11,242.4c.05.08.12.15.2.22.23.2.51.31.81.31.25,0,.49-.08.7-.22l30.62-21.24v3.84l-51.38,35.95c-.55.39-.69,1.15-.3,1.71.23.33.6.52,1.01.52.25,0,.49-.08.7-.22l49.97-34.96v5.8l-59.42,44.27v-22.32c0-.59.26-1.14.67-1.43l58.75-41.53v5.38l-32.02,22.21c-.25.18-.43.44-.5.76-.07.34,0,.68.19.95ZM221.12,287.74c.03.24.12.45.26.62.23.29.58.45.95.45.29,0,.55-.1.78-.28l53.33-43.62v5.87l-10.44,8.38c-8.42,6.75-24.36,19.48-36.45,28.97l-5,3.9c-2.78,2.16-4.96,3.83-6.48,4.97l-1.06.79v-16.69l.48-.14c.17-.05.3-.11.41-.19l58.53-43.61v4.57l-54.89,44.89c-.33.27-.49.68-.44,1.11ZM216.27,252.63c-.63.45-1.12,1.09-1.42,1.86-.19.51-.29,1.04-.29,1.58v43.96c0,.47.28.92.71,1.12.26.12.39.18.52.18.81,0,3.32-1.95,10.78-7.76,1.08-.84,2.26-1.76,3.5-2.74l4.96-3.9c3.73-2.94,7.99-6.31,12.77-10.12,6.8-5.41,13.62-10.86,19.1-15.24l9.53-7.64v3.86l-50.97,42.74-11.37,5.98-.33-.23c-1.42-1-2.24-2.69-2.24-4.63v-45.7c0-.3.02-.59.05-.89.08-.85.27-1.69.57-2.48.62-1.62,1.62-2.94,2.9-3.83l61.38-42.66v3.99l-60.17,42.53ZM270.97,265.59l7.77,21.45-31.26.78,17.98-17.61,5.51-4.62ZM80.25,264.9c.67,0,1.21-.52,1.23-1.19.48-12.66,2.93-21.91,3.41-23.63l.15-.53,33.85,3.29-.21.76c-.77,2.74-4.53,17.35-3.29,36.25.11,1.68.26,3.38.44,5.03.16,1.45.35,2.89.56,4.3.03.23.24,1.46.24,1.46.08.52.17,1.04.26,1.55l.07.34c.09.51.19,1.02.3,1.53.09.45.18.9.28,1.35,0,0,.36,1.63.42,1.87l.36,1.54-33.45-3.24-.12-.45c-.16-.63-.32-1.26-.47-1.89-.15-.63-.3-1.26-.43-1.89-.74-3.37-1.31-6.77-1.7-10.1-.07-.61-.61-1.09-1.23-1.09-.05,0-.09,0-.14,0-.68.08-1.16.69-1.08,1.37.36,3.12.9,6.36,1.59,9.64l.09.43c.1.48.2.96.31,1.44.07.3.14.6.22.9l.34,1.4-5.41-.53.05-.65c.01-.15,0-.29-.03-.41l-.08-.3c-.17-.63-.32-1.26-.48-1.89-5.9-24.38-1.32-46.16.23-52.26l.14-.55,5.87.57-.2.75c-.85,3.16-2.87,11.78-3.32,23.56-.03.68.51,1.26,1.23,1.28ZM124.59,290.11c.1.62.2,1.24.31,1.87l.03.15c.08.45.17.91.26,1.36,0,0,.25,1.29.29,1.49l.2.92c.2.93.42,1.87.66,2.81l.23.91-5.64-.55-.3-1.19c-.13-.55-.26-1.1-.39-1.65l-.1-.47c-.12-.51-.23-1.03-.34-1.54l-.02-.12c-.1-.49-.19-.98-.28-1.47l-.06-.3c-.12-.63-.23-1.26-.33-1.89l-.07-.42c-.07-.4-.14-.8-.2-1.2-.21-1.38-.39-2.79-.55-4.2-.18-1.63-.33-3.29-.43-4.92-1.34-20.37,3.32-35.83,3.36-35.95v-.07s.16-.58.16-.58l5.35.52-.2.75c-1.36,5.12-5.52,23.55-1.93,45.76ZM73.98,239.23c-1.94,7.74-5.84,28.31-.27,52.1.13.57.28,1.15.43,1.72l.39,1.51-29.87-2.89-.12-.45c-6.99-26.79-1.15-50.57.09-55.06l.15-.54,29.39,2.86-.19.74ZM82.18,298.51l42.46,8.13-.02.57c-.32,7.5,1.31,22.87,2.03,29.13l.08.66-104.33,10.6-.09-.63c-.28-1.95-.53-3.96-.73-6-.1-.94-.18-1.88-.25-2.8-1.37-16.83.43-30.57,1.01-34.38l.08-.52,59.78-4.77ZM129.08,244.38l.15-.54,35.81,3.48-.2.75c-.58,2.18-1.69,6.82-2.5,13.3-.08.68.4,1.29,1.08,1.38.05,0,.1,0,.15,0,.62,0,1.15-.47,1.22-1.08.9-7.25,2.22-12.23,2.6-13.58l.15-.53,5.33.52-.19.75c-.83,3.24-2.81,12.02-3.18,23.59-.02.68-.04,1.38-.05,2.08,0,.68-.01,1.37-.01,2.06.01,4.17.26,8.36.72,12.45.07.62.14,1.24.22,1.87.08.62.17,1.25.26,1.87.52,3.51,1.22,7.02,2.09,10.44l.23.91-5.63-.55-.12-.45c-.83-3.21-1.52-6.59-2.06-10.06l-.11-.68c-.07-.4-.13-.81-.19-1.22-.05-.4-.1-.8-.14-1.2l-.08-.69c-.42-3.62-.67-7.26-.74-10.82-.01-.55,0-1.1,0-1.65v-.43c0-.69,0-1.38.01-2.08.03-1.98.1-3.73.2-5.35.05-.76.1-1.51.16-2.24.05-.68-.45-1.28-1.13-1.33h-.1c-.64,0-1.18.49-1.23,1.13-.06.75-.11,1.51-.16,2.28-.14,2.2-.21,4.56-.21,7.21v.74c-.01.44-.01.88,0,1.32,0,.43.02.87.04,1.3l.03.73c.1,3.07.32,6.14.66,9.13l.07.63c.05.42.09.83.14,1.24.06.46.13.91.2,1.36l.08.51c.47,3.17,1.1,6.35,1.86,9.45l.22.91-35.54-3.44-.12-.45c-.42-1.59-.8-3.22-1.15-4.86l-.11-.54c-.07-.33-.13-.65-.19-.98l-.17-.92c-.08-.46-.16-.91-.24-1.36l-.09-.53c-3.77-22.91.97-42.21,1.95-45.85ZM191.89,319.5l1.16,10.81-56,4.66-.09-.62c-1.23-8.46-1.58-19.22-1.69-24.88v-.81s56.61,10.84,56.61,10.84ZM175.54,304.36l-.1-.48v-.08c-.95-3.54-1.72-7.22-2.28-10.94-.1-.64-.18-1.27-.26-1.89-.08-.64-.16-1.27-.23-1.9-.53-4.65-.77-9.44-.71-14.23,0-.71.02-1.41.05-2.1.02-.72.05-1.42.08-2.11.52-10.81,2.36-18.81,3.13-21.75l.14-.55,26.91,2.62,2.76.29c1.71.19,3.19,1.54,3.77,3.45.18.58.27,1.16.27,1.74v44.68c0,1.87-.73,3.59-2,4.74-.91.82-1.99,1.25-3.14,1.25-.15,0-.31,0-.46-.02l-27.93-2.71ZM206.01,322.21c1,.15,2.02.22,3.04.22,5.13,0,10.08-1.87,13.93-5.27l16.5-19.85h12.07l1.86,27.83-51.44,4.97-1.5-8.96,5.55,1.06ZM231.88,181.84c.39,2.23.27,4.51.16,6.71l-.03.55c0,.13,0,.26.05.42l.04.29-.31.6-.43-.02c-.86-.05-1.64-.07-2.4-.07h-1s.04-.7.04-.7c.16-2.86-.07-5.73-.7-8.54-.08-.36-.39-.69-.82-.86l-1.73-.69,1.78-.55c.93-.29,1.82-.81,2.57-1.5.03-.03.16-.18.2-.22l.3-.2.3.02h.48s.14.46.14.46c.15.47.32.94.49,1.41.34.92.69,1.88.86,2.89ZM212.92,185.99c-.01-.28-.03-.59.02-.86l.1-.52.59-.02h.01c.55,0,1.1.22,1.6.41.14.06.28.11.4.15l.41.14.25,3.12c.03.29.05.59.05.88,0,.07-.02.29-.02.34h-.02c0,.1-.02.23-.04.3-.03.13-.06.25-.1.37-.01.04-.14.36-.14.36l-.03.05c-.1.19-.2.38-.31.56-.03.05-.07.1-.14.19-.09.1-.18.21-.28.3-.06.06-.13.12-.2.18l-.12.11h0c-.06.04-.12.09-.16.12l-.29.17-.09.02c-2.22.56-4.56,1.25-7.39,2.15l-.96.31.1-1c.02-.17.02-.33.02-.58v-.54s.54-.1.54-.1c3.38-.63,5.92-3.21,6.19-6.27,0-.09,0-.21,0-.34ZM214.97,169.48c-1.02.53-1.96.94-2.86,1.28-1.11.41-2.32.76-3.65,1.04-.77.08-1.57.12-2.36.12-1.65,0-3.36-.17-5.07-.52-1.32-.26-2.64-.62-3.93-1.07-.22-.08-.78-.28-.78-.28-1.2-.44-2.41-.91-3.62-1.39-1.14-.45-2.29-.91-3.45-1.33-2.09-.76-4.86-1.67-7.77-1.91-.51-.04-1.02-.06-1.51-.06-.26,0-.52,0-.79.02-1.47.07-3.05.35-4.83.87-.38.11-.76.23-1.15.35-1.33.42-2.7.85-4.14.94-.23.01-.46.02-.69.02-1.47,0-2.6-.33-3.44-1-1.25-1-1.7-2.65-2.09-4.06-2.02-7.33-1.37-15.29,1.84-22.41.19-.42.39-.84.6-1.25l.48-.98,1.31-2.62.21-.43c.73-1.46,1.32-2.69,1.84-3.96,1.28-3.17,1.77-6.44,1.45-9.74-.02-.24-.09-.47-.21-.69l-.13-.26.1-.27c.65-1.77,1.17-3.64,1.54-5.55.2-1.04.38-2.15.58-3.61v-.08s.05-.08.05-.08c.08-.18.12-.37.14-.58.07-.73.14-1.46.21-2.22.41-3.16.82-6,1.6-8.83.64-2.31,1.62-4.53,2.76-6.25l.13-.2.23-.07c.87-.25,1.76-.38,2.65-.38,3.45,0,7.04,1.86,10.97,5.68.83.81,1.68,1.7,2.6,2.73,1.27,1.42,2.57,2.98,4.09,4.9l.27.34c1.76,2.24,3.27,4.3,4.62,6.3.96,1.42,1.87,2.84,2.72,4.22,3.96,6.47,7.31,13.42,9.94,20.68.53,1.47,1.04,2.98,1.52,4.5,1.17,3.72,2.14,7.39,2.87,10.91.54,2.57.91,4.66,1.19,6.62l.08.55c.1.72.19,1.44.25,2.17.03.28.04.56.06.84,0,.18.01.37.01.55,0,.63-.07,1.18-.21,1.68l-.05.17-.5.51c-.46.47-.93.95-1.45,1.37-1.23,1-2.65,1.92-4.22,2.73ZM203.5,193.46c0,.09,0,.19-.02.28l-.04.19c-.04.17-.08.34-.13.5l-.07.2-.06.11-.35.58-.26.29c-.14.16-.33.38-.59.49-.04.03-.08.05-.13.08-.05.03-.26.14-.26.14l-.18.06s-3.41,1.16-4.52,1.54c-1.46.49-2.93.97-4.4,1.44l-.86.27v-.9c0-.59-.02-1.17-.04-1.76-.03-.62-.06-1.24-.11-1.88l-.11-.8.82.07c.16.01.32.02.48.02,2.25,0,4.36-1.27,5.39-3.23l.32-.62.6.35c1.39.81,2.68,1.35,3.96,1.63l.51.11v.52s.02.24.02.31ZM136.52,108.51l22.32,22.31-.83.57c-.11.08-.22.15-.33.22-4.32,2.79-9.24,4.2-14.61,4.2-2.74,0-5.55-.38-8.36-1.13-1.6-.43-3.18-.96-4.7-1.6l-.05-.02-.05-.03c-4.59-2.89-8.68-7.24-12.13-12.92-1.66-2.73-3.23-5.79-4.81-9.35-1.09-2.47-2.34-5.36-3.31-8.31l-.06-.18.04-.18c.54-2.31,1.5-4.43,2.86-6.29,4.47-6.1,13.39-9.91,26.53-11.31,1.42-.15,2.86-.38,4.25-.59.67-.1,1.33-.21,1.99-.3l.33-.05,14.6,14.6c.25.25.59.39.95.39s.7-.14.95-.4c.53-.53.53-1.38,0-1.91l-13.11-13.11,1.62.02c2.27.02,4.19.43,5.84,1.26,2.54,1.27,4.89,3.51,6.99,6.67,4.71,7.09,6.45,15.94,4.79,24.28l-.12.59c-.28,1.41-.62,3.16-1.18,4.99-.45.99-.94,1.88-1.48,2.74-1.12,1.79-2.49,3.45-4.08,4.96l-.47.44-22.51-22.51c-.25-.25-.59-.4-.95-.4s-.7.14-.95.4c-.26.25-.4.59-.4.95s.14.7.4.95ZM129.29,135.83l-.46,1.22c-5.12-1.04-9.9-3.96-13.12-8-.91-1.14-1.72-2.45-2.47-4.02l1.11-.7c1.61,2.03,3.18,3.7,4.8,5.11,2.79,2.44,6,4.47,9.63,6.07,0,0,.38.24.51.31ZM143.24,81.2l-1.29.2c-.97.15-2.1.32-3.19.43-13.93,1.48-23.49,5.65-28.43,12.4-.3.41-.6.86-.9,1.35l-1.18,1.93-.05-2.26c-.06-3.14.79-5.7,2.54-7.61.1-.11.18-.23.25-.38l.08-.18.17-.1c6.98-4.25,14.6-7.31,22.65-9.09l.23-.05.21.11c.22.11.48.17.75.17.11,0,.23,0,.34-.03,1.44-.24,2.63-.41,3.75-.56l.32-.04,3.72,3.72ZM142.99,77.13l2.14-.02c.61,0,1.22.01,1.83.05,1.88.12,4.02.59,6.73,1.49,3.17,1.05,6.83,2.48,9.92,5.11,3.31,2.81,5.44,6.47,6.34,10.89l.03.18-1.26.38c-.85-1.99-1.86-3.88-3.01-5.6-2.36-3.56-5.06-6.11-8.03-7.59-2.09-1.04-4.45-1.55-7.23-1.55-1.07,0-2.23.07-3.55.22l-.32.04-3.59-3.6ZM190.62,93.55l-1.19-.85c-2.24-1.6-4.43-2.61-6.69-3.09l-.03-1.29c.6-.16,1.16-.23,1.7-.24h.11c2.38,0,4.35,1.25,5.86,3.71l.09.12v.19l.15,1.46ZM212.55,92.13l-12.88-12.88.77-.43c1.87-1.04,4.03-1.97,6.42-2.76.51-.17,1-.32,1.48-.47l1.17-.36-.35,1.18c-.04.15-.06.27-.06.38,0,.74.61,1.35,1.35,1.35s1.35-.61,1.35-1.35c0-.36-.14-.69-.39-.95l-.87-.88,1.22-.23c1.2-.23,2.29-.33,3.34-.33,2.76,0,5.27.77,7.9,2.42,5.16,3.25,9.47,8.46,12.44,15.06,2.14,4.76,3.12,9.24,2.89,13.29-.2,3.59-1.34,6.84-3.29,9.42l-.1.13-.15.07c-.9.41-1.87.79-2.98,1.16l-.09.03h-.1c-.1,0-.19.01-.29.03-1.32.23-2.69.34-4.07.34-9.44,0-17.86-5.14-23.26-9.45-3.23-2.57-7.14-6.18-8.74-11.24-.96-3.03-1.34-6.5-1.21-10.93v-.17s.09-.14.09-.14c.64-1.12,1.59-2.2,2.8-3.23l.46-.39,13.24,13.23c.26.26.59.4.95.4s.7-.14.96-.4c.53-.53.53-1.38,0-1.91ZM229.34,162.9l.32.05.16.28c.83,1.48,1.31,3.05,1.43,4.68l-1.23.38c-.91-1.56-2.28-3-3.97-4.16l-.47-.39.3-.53s.12-.19.12-.19l.04-.04c.07-.07.14-.14.2-.2l.22-.2.3.03c.88.08,1.73.17,2.6.3ZM227.27,159.23l.7-.6c.14-.12.27-.24.4-.36l1.04-.98.1,2.13v.76s-.97-.1-.97-.1l-.16-.15c-.08-.08-.19-.16-.33-.23l-.79-.47ZM229.55,150.92c-.06.25-.13.49-.2.73-.82,2.78-2.59,4.94-4.97,6.1l-.81.39-.14-.89c-1.11-7.24-2.98-14.47-5.54-21.51l-.55-1.51,3.2,1.51c.77.37,1.67.82,2.54,1.38,1.63,1.05,3.09,2.41,4.22,3.93.75,1.02,1.35,2.09,1.78,3.18.28.71.49,1.48.61,2.29.11.72.16,1.44.14,2.15-.02.74-.12,1.49-.28,2.23ZM217.24,130.97c-.39-.3-.72-.59-1-.89-.15-.16-.32-.28-.5-.34l-.27-.1-.11-.26c-1.43-3.31-3.05-6.61-4.8-9.79l-.78-1.42,1.55.47c.22.07.89.26.89.26l.13.18c2.05,2.75,3.62,6.05,4.93,8.92.18.4.36.81.54,1.21l.43.96-1,.8ZM218.86,186.36l-.06-.63.63-.09c.37-.05.69-.13.98-.23,1.35-.46,2.53-1.38,3.32-2.59l.91-1.38.3,1.62.07.38c.05.23.09.45.14.77l.08.71c.04.38.07.77.09,1.15.07,1.17.06,2.42-.03,3.82l-.04.56-.56.05c-1.56.14-3.2.37-5,.7l-.96.17.2-.96c.09-.45.14-.89.13-1.32-.02-.96-.1-1.93-.19-2.75ZM245.86,111.43c-.83,6.29-2.67,10.65-2.88,11.12-.11.26-.14.54-.08.81.43,2.11,1.15,3.99,1.78,5.66,1.53,4.05,2.3,6.49.35,9.67-2.17,3.55-5.94,5.98-11.87,7.64l-.69.2-.15-.8c-.05-.27-.1-.54-.17-.81-.89-3.34-3-6.48-5.94-8.84-.91-.73-1.93-1.39-3.12-2.04l-.2-.11-.09-.21c-1.16-2.67-2.13-4.84-3.04-6.85-.36-.8-.74-1.59-1.11-2.37l-.4-.95h1.05c2,0,4.01-.18,5.96-.54,3.78-.7,6.93-2.07,9.36-4.08.63-.52,1.25-1.14,1.94-1.95l.09-.1.12-.06c1.01-.51,1.83-.96,2.57-1.43,1.94-1.23,3.76-2.75,5.41-4.51l1.41-1.52-.27,2.05ZM244.31,60.44c.62.12,1.23.25,1.84.4l.3.07.14.27c.31.59.6,1.18.88,1.78l-1.06.75c-.79-.77-1.66-1.46-2.59-2.06l.49-1.2ZM220.3,61.68c1.76-.11,3.67-.18,6.01-.23.6-.01,2.11-.05,2.11-.05l11.79,11.79c.25.25.59.4.95.4s.7-.14.95-.4c.26-.25.4-.59.4-.95s-.14-.7-.4-.95l-9.95-9.95,1.76.12c2.05.14,3.79.46,5.34.97,4.25,1.4,6.91,4.82,8.4,7.44,1.41,2.49,2.43,5.45,3.22,9.32l.44,2.15-3.24-3.24c-.26-.26-.59-.4-.96-.4s-.7.14-.95.4c-.53.53-.53,1.38,0,1.91l5.57,5.57-.02.3c-.27,3.88-1.01,7.69-2.21,11.29l-.94,2.76-.46-2.52c-1.97-10.86-7.95-19.86-17.77-26.75-3.66-2.57-7.17-5.19-10.41-7.8l-1.33-1.07,1.7-.11ZM202.27,65.89l.09-.11.13-.06c3.49-1.68,7.45-2.81,12.11-3.47l.3-.04.23.19c2.19,1.87,6.87,5.71,13.66,10.47,11.06,7.76,17.1,18.58,17.46,31.31v.19s-.09.17-.09.17c-1.39,2.31-3,4.31-4.78,5.94l-1.69,1.55.61-2.21c.41-1.49.66-3,.74-4.49.25-4.49-.8-9.39-3.13-14.55-3.19-7.09-7.85-12.71-13.47-16.24-3.08-1.94-6.04-2.84-9.3-2.84-2.57,0-5.39.56-9.14,1.81-3.02,1.01-5.66,2.19-7.85,3.52l-.44.27-2.44-2.44.12-.38c1.22-3.96,3.39-6.73,6.44-8.23.19-.09.34-.21.45-.34ZM187.2,23.43l.92.84c4.48,4.09,8.67,8.78,12.46,13.94l.3.4-.31.39c-.19.24-.37.49-.54.75l-.32.5-.53-.27c-.76-.39-1.66-.6-2.58-.6-.59,0-1.17.08-1.73.24l-.53.15-.24-.49c-.19-.39-.52-.58-.99-.58l-19.35,1.09c-.15,0-.34.04-.55.07-.38.05-.82.12-1.23.12-.53,0-.92-.11-1.21-.32-.12-.09-.21-.19-.27-.27l-.56-.69.82-.34c.25-.11,1.05-.53.8-1.53-.03-.11-.06-.23-.08-.35v-.07s-.02-.27-.02-.27c0-.04,0-.22,0-.28v-.09s0-.09,0-.09c.03-.19.07-.38.13-.56.03-.1.07-.2.11-.33l.02-.05.12-.23c.07-.12.12-.21.15-.27.13-.24.19-.33.46-.6.05-.05.18-.17.29-.27l.21-.19.62-.35h.06s.28-.1.29-.11c.26-.07.48-.09.74-.11.1,0,.2,0,.3,0,.46,0,.9.04,1.33.09l.37.04c.37.03.74.05,1.11.05.8,0,1.52-.09,2.21-.26,3.59-.93,6.49-4.16,7.04-7.87l.18-1.23ZM17.28,128.17C3.3,82.97,22.03,41.46,48.22,27.44,78.87,11.02,106.58,2.7,130.59,2.7c10.19,0,19.85,1.51,28.72,4.49,9.29,3.12,17.92,7.94,25.64,14.32l.65.54-.68.5c-.32.23-.48.57-.49,1,0,.03-.02.28-.02.31l.03.03-.05.35c-.03.22-.08.44-.13.65-.07.27-.15.53-.25.79-.03.09-.07.19-.22.48-.49.95-.88,1.47-1.67,2.19-.37.34-.61.52-1.1.81-.24.14-.48.27-.73.39-.08.04-.18.09-.49.19-.22.07-.43.14-.65.19v.07s-.72.06-.72.06c-.2.02-.41.02-.61.02-.38,0-.75-.02-1.13-.06l-.18-.02c-.56-.05-1.15-.1-1.7-.1-.7,0-1.26.08-1.77.25-.99.32-1.87.88-2.54,1.61-.92,1-1.5,2.22-1.68,3.52l-.13.95-.95-.52c-.09-.05-.18-.1-.28-.14-.86-.37-1.82-.54-3.11-.54-.62,0-1.24.04-1.86.07l-.42.02c-.64.04-1.29.06-1.94.06-1.34,0-2.51-.1-3.57-.31-2.18-.43-3.74-1.15-4.9-2.26-1.28-1.21-1.97-2.8-2.64-4.34-.19-.45-.39-.89-.59-1.32-2.11-4.39-5.03-8.39-8.69-11.89-.27-.26-.57-.39-.88-.39-.56,0-1.15.42-1.37.97-.13.33-.18.82.32,1.3,3.39,3.24,6.13,6.97,8.16,11.09.25.52.49,1.04.73,1.56.72,1.58,1.4,3.07,2.5,4.35,1.11,1.29,2.69,2.3,4.69,3,1.58.56,3.46.86,5.74.92h.27c.64,0,1.28-.05,1.97-.1.69-.05,1.4-.11,2.1-.11.57,0,1.08.04,1.55.11,1.47.24,2.02,1.41,2.45,2.34.23.48.44.94.75,1.28.74.82,1.78,1.19,3.35,1.19.6,0,1.22-.05,1.82-.1.33-.03.65-.05.97-.07l17.13-.97-.45.99c-.51,1.13-.61,2.34-.27,3.43l.58,1.88-1.6-1.15c-.45-.33-.99-.49-1.6-.49-1.53,0-3.19,1.08-3.78,2.45-.74,1.75-.44,3.97.89,6.6,2.01,3.95,5.33,7.39,9.37,9.69l1,.57-1,.58c-1.35.78-2.53,1.51-3.6,2.22-2.19,1.46-4.27,3.08-6.19,4.62-2.02,1.62-4.3,3.18-7.23,3.62-.8.12-1.64.18-2.51.18-2.95,0-5.9-.68-8.76-1.33-1.47-.34-2.99-.68-4.45-.92-2.84-.46-5.87-.76-9.01-.89l-.69-.03.08-.87c.63-6.85,1.34-14.61-3.54-19.83-1.87-2-4.23-3.15-6.49-3.15-2.09,0-4.04.98-5.8,2.92l-.54.6-.48-.64c-.67-.9-1.36-1.43-2.29-1.78-.79-.29-1.59-.44-2.38-.44-1.37,0-2.69.43-3.91,1.29l-.34.24-.36-.2c-1.21-.68-2.48-1.03-3.68-1.03-.61,0-1.2.09-1.74.28-1.18.4-2.1,1.17-2.74,2.28l-.3.53-.55-.25c-.75-.34-1.49-.52-2.22-.52-.65,0-1.29.14-1.89.43-.96.46-1.71,1.25-2.18,2.3l-.26.59-.6-.25c-.62-.26-1.23-.39-1.83-.39-1.03,0-1.96.39-2.76,1.17-1.14,1.12-1.82,2.49-1.94,3.99,0,.06,0,.12,0,.26v.69s-.7-.05-.7-.05c-.11,0-.22-.01-.33-.01-1.14,0-2.22.39-2.96,1.07-1.04.95-1.51,2.24-1.29,3.52.03.19.09.37.15.55l.19.56-.54.25c-.66.31-1.27.77-1.71,1.32-1.34,1.65-1.71,3.95-1.11,7.02.81,4.16,3.98,7.63,9.69,10.59l.96.5-.89.63c-.7.5-1.4,1.01-2.08,1.53l-.25.19-.3-.07c-.2-.05-.41-.09-.64-.12-.86-.12-1.66-.18-2.45-.18-.39,0-.77.01-1.16.05-1.46.12-2.94.41-4.54.89l-.41.12-.42-.49c-.05-.07-.11-.14-.17-.2-2-2.15-4.61-3.6-7.57-5.14-1.75-.91-3.48-1.9-5.16-2.86-1.74-1-3.54-2.03-5.35-2.96-8-4.12-16.57-4.65-23.13-4.65-3.03,0-6.12.13-8.75.27-.92.05-1.33.81-1.31,1.49,0,.2.08,1.21,1.24,1.21,0,0,.24-.01.24-.01,3.07-.15,6.25-.31,9.41-.31,7.51,0,13.07.92,18.05,2.98,2.52,1.04,4.88,2.43,7.17,3.77,1.34.79,2.73,1.6,4.12,2.33.5.26,1.01.52,1.52.78,2.14,1.08,4.35,2.21,6.24,3.76.11.09.22.19.32.29l.86.77-.9.42c-2.79,1.31-5.46,2.97-8.04,4.58l-.48.3c-3.17,1.97-6.43,3.92-9.59,5.8l-8.04,4.81c-3.47,2.08-6.95,4.16-10.42,6.24-2,1.2-4,2.41-6,3.62-.3.18-.6.36-.91.55-1.66.98-3.38,2-4.42,3.49-1.27,1.82-1.01,4.27-.76,6.64.05.49.1.97.14,1.43l.95,12.46c.15,2.05.31,4.11.47,6.16.11,1.35.62,4.48,2.96,4.48.08,0,.16,0,.25-.01.54-.05,1.18-.33,1.36-.99,1.1-4.2,1.84-8.53,2.21-12.86.18-2.16.26-4.34.24-6.48,0-.23-.01-.48-.03-.75-.07-1.34-.16-3.18,1.05-4.2.65-.55,1.54-.88,2.31-1.18.27-.1.53-.2.77-.3.69-.3,1.37-.6,2.05-.91,1.81-.83,3.61-1.69,5.4-2.56,3.68-1.78,7.34-3.58,11-5.38,5.75-2.84,11.71-5.77,17.62-8.54l2.69-1.27v1.04c.01.83.02,1.65.05,2.48.29,6.7,1.56,13.01,3.76,18.77.79,2.08,1.74,4.19,2.8,6.26l.64,1.23-.71.26c-6.83,2.55-13.87,4.79-20.68,6.96l-3.97,1.27c-.81.26-1.01.97-.92,1.55.09.57.48,1.15,1.14,1.15.14,0,.29-.02.44-.07l4.17-1.33c7.46-2.37,15.16-4.83,22.59-7.69.67-.26,1-.68,1.06-1.38.05-.6-.39-1.37-.77-2.05-.11-.19-.21-.38-.3-.55-.36-.69-.72-1.38-1.06-2.08-.2-.41-.39-.82-.58-1.23l-.31-.68-.28-.64c-2.42-5.74-3.85-11.94-4.26-18.41-.11-1.73-.13-3.55-.05-5.73v-.41s.39-.17.39-.17c1.77-.78,3.33-1.39,4.91-1.9l.23-.07.91.36.11.23c1.75,3.48,3.24,6.39,4.84,9.25l.05.1.02.11c.13.74.27,1.42.39,2l.1.48c.99,4.92,2.49,10.56,6.07,15.05,4.57,5.74,11.88,9.35,19.06,9.43.42,0,.83,0,1.24,0,11.29,0,20.03-1.85,26.01-5.5l1.68-1.11,2.09-1.73.46-.47c.3-.3,3.55-5.99,3.82-6.3l-1.87,6.08-.08.19c-.16.36-.32.72-.49,1.08l-.4.84-1.29,2.53-.22.43c-.55,1.08-1,1.99-1.41,2.93-3.02,6.9-3.9,14.33-2.54,21.49.61,3.21,1.49,6.77,4.31,8.51.99.61,2.1.96,3.4,1.07l2.08.17-1.8,1.06c-2.1,1.23-3.93,2.5-5.44,3.8-.57.48-.64,1.34-.15,1.9.26.3.63.47,1.03.47.32,0,.63-.11.87-.32.16-.14.33-.27.5-.41l1.52-1.21-.22,1.63c-.13,1.01-.09,1.9.15,2.74.47,1.7,1.83,2.89,3.62,3.19l1.64.27-.12.08,1.79-.87c.72-.35,1.42-.87,2.13-1.57l.57-.57.44.67c.48.72,1.03,1.36,1.63,1.91l.97.87-1.28.27c-.38.08-.89.17-1.43.17-.17,0-.34,0-.57-.03-.06,0-.13.01-.22.03l-.25.06-.23-.12c-.46-.25-.98-.4-1.55-.44l-2.34-.17-.94.63c-.19.13-.36.3-.45.45-.17.29-.23.74-.14,1.01.2.63.71,1,1.35,1,.12,0,.24-.01.36-.04.27-.05.54-.1.83-.14.31-.04.61-.06.92-.06.1,0,.2,0,.3,0h.11s.24.08.24.08l.12.11.16.18c.26.39.49.81.72,1.32.28.71.48,1.38.61,2.05.05.25.33.59.61.76.2.11.47.19.72.19.11,0,.21-.01.3-.04.75-.24,1.12-.9.96-1.72-.12-.64-.34-1.25-.51-1.71l-.27-.73.77-.15c.41-.08.83-.18,1.23-.27l.21-.05c1.14-.26,2.29-.55,3.42-.87.41-.11.81-.24,1.21-.37l1.22-.38.17.67c.77,3,1.93,5.26,3.45,6.73l.17.16.03.23c.08.59.14,1.18.2,1.77.06.64.11,1.29.14,1.93.03.64.05,1.28.06,1.93v.15c0,.43,0,.85,0,1.28v.49s-.48.13-.48.13c-3.19.89-6.08,1.54-8.85,1.97l-.79.12.02-.8c.04-1.35,0-2.69-.1-3.99-.04-.52-.1-1.04-.16-1.57-.01-.1-.03-.19-.05-.28-.07-.36-.16-.56-.36-.76-.23-.23-.6-.4-.92-.4h0c-.24.01-.69.07-.97.38-.15.17-.28.38-.36.58-.05.13-.07.24-.06.31.05.41.09.81.14,1.29.15,1.63.19,3.3.12,4.96l-.02.59-.58.04c-1.2.09-2.38.14-3.51.14-1.23,0-2.44-.06-3.6-.17-.99-.09-1.98-.23-2.93-.42l-.82-.16.34-.76c.55-1.23.82-2.59.82-4.02,0-.18-.01-.36-.03-.53l-.02-.28c-.04-.62-.11-1.24-.21-1.84-.11-.65-.24-1.29-.39-1.87-.18-.72-.36-1.35-.55-1.93-.04-.12-.09-.24-.13-.35l-.22-.55.35-.31c.18-.16.36-.31.57-.48.54-.4,1-.71,1.45-.98.29-.17.54-.49.62-.81.09-.33.04-.77-.12-1.02-.13-.2-.4-.55-.79-.64-.14-.03-.27-.05-.4-.05-.25,0-.47.06-.67.17-.97.57-1.89,1.25-2.72,2.01l-.24.22-.32-.06c-.18-.03-.37-.05-.56-.05-.53,0-1.08.13-1.65.37-.42.18-.81.44-1.23.7-.37.24-.75.48-1.16.69-.42.21-.97.5-1.43.87l-.69.56-.54-1.34c-1.23-3.01-1.65-6.32-1.24-9.58l.1-.79.76.25c.6.2,1.2.3,1.77.32h.07s.06.02.06.02c.09.02.17.04.26.07l.05.02.05.02c.17.08.33.18.48.28l.04.03.04.03c.13.11.25.23.36.36l.03.04.03.04c.09.14.17.28.24.42l.04.09.05.16c.08.31.33.63.62.8.2.11.47.19.72.19.11,0,.21-.01.3-.04.23-.07.63-.25.82-.6.19-.36.24-.71.15-1.08-.17-.67-.39-1.36-.7-2.09l-.07-.16.02-.18c.05-.39-.1-.84-.39-1.18-.15-.18-.48-.47-.95-.47-.22,0-.44.07-.67.19-.4.23-.84.36-1.3.38h-.05s-.05,0-.05,0c0,0-.3-.04-.34-.04h-.18s-.07,0-.07,0c-.87-.13-1.79-.61-2.61-1.35-1.66-1.5-2.28-3.48-2.77-5.38-.13-.49-.24-.97-.36-1.46-.43-1.77-.83-3.44-1.56-5.04-.78-1.74-2.01-3.38-3.54-4.74-5.96-5.28-14.26-5.8-22.28-6.31-1.29-.08-2.56-.16-3.8-.26l-17.87-1.43s-.09,0-.14,0c-.96,0-1.07.87-1.08,1.13-.03.71.37,1.5,1.32,1.58l15.99,1.28c1.34.11,2.68.2,4.03.29,3.48.23,7.08.47,10.58,1.03l.36.06,9.63,22.02.19.41c1.69,3.98,3.63,7.9,5.77,11.64.38.66.77,1.32,1.16,1.98l.48.81c.21.35.42.67.63,1l.11.17c1.43,2.24,2.62,3.73,3.96,4.98,3.4,3.17,8.17,5.07,14.18,5.63,1.3.12,2.64.18,3.98.18,9.9,0,19.6-3.31,28.97-6.51l.99-.34c1.53-.52,3.05-1.04,4.56-1.53,1.77-.58,3.35-1.08,4.84-1.52.65-.19,1.31-.38,1.96-.56l.12-.03h.12c.05.02.11.02.16.02.11,0,.23-.01.33-.04.39-.1.79-.25,1.18-.44l.06-.03.07-.02c4.95-1.24,9.34-1.84,13.42-1.84,1.06,0,2.13.04,3.16.12l.44.04.13.42c.44,1.39.92,2.77,1.39,4.13l.04.13s.55,1.58.76,2.22c.22.66.43,1.31.64,1.96,1.04,3.31,2.04,7.23,1.62,11.3-.76,7.39-8.15,10.24-15.98,13.25-.72.28-1.43.55-2.14.83-4.37,1.72-23.12,4.23-42.53,4.23-15.15,0-35-1.54-43.57-8.9l-.09-.08-.06-.1c-.54-.97-1.4-4.41-2.48-8.85-1.66-6.81-3.72-15.28-6.35-19.99-.27-.48-.51-.87-.72-1.19-.1-.14-.2-.28-.3-.42l-.24-.33c-.47-.67-.95-1.34-1.45-1.99-4.5-5.9-9.83-11.1-14.99-16.12-.25-.25-.59-.38-.94-.38s-.71.15-.97.41c-.52.53-.51,1.39.02,1.91,1.31,1.27,2.62,2.56,3.93,3.85l.89.89-1.24.23c-4.09.76-7.42,3.19-9.9,7.22-.36.59-.68,1.17-.98,1.76-.29.58-.56,1.18-.81,1.78-.82,2.01-1.49,4.26-1.97,6.68-.29,1.47-1.22,2.72-2.54,3.42-.71.38-1.47.57-2.25.57-.62,0-1.24-.12-1.83-.37-8.1-3.38-15.91-7.57-23.19-12.46-1.05-.7-2.09-1.42-3.11-2.15-.96-.69-1.92-1.38-2.86-2.1-19.9-15.04-34.54-35.2-41.22-56.77ZM158.25,198.59c-.17-.72-.32-1.5-.47-2.36l-.04-.21c-.05-.29-.1-.58-.14-.87-.02-.16-.07-.54-.1-.89-.01-.16-.02-.31-.03-.44,0-.03,0-.06,0-.09l-.12-.18.12-.34s.06-.14.06-.14l.02-.07.04-.02c.1-.15.26-.31.53-.32h0c.13-.07.26-.13.39-.19l.15-.07c.32-.15.61-.33.91-.52.05-.03.09-.05.21-.12l.19-.12c.3-.2.61-.4.96-.57l.58-.22.31.54.08.15.04.1c.06.18.1.36.15.53l.06.22s.15.53.19.67c.11.43.22.86.32,1.29l.09.36c.05.24.1.48.15.72.03.16.06.33.09.49l.03.21.02.21c.06.53.08,1.01.07,1.47,0,.23-.01.45-.03.68-.01.15-.03.3-.05.45h-.01s-.03.17-.03.17l-.04.14c-.1.41-.2.84-.37,1.25-.02.05-.05.14-.11.23-.04.08-.08.16-.13.24l-.38.6-.5-.19c-1.05-.39-2.03-.86-2.93-1.38l-.43-.25.13-.49c.06-.24.07-.48.01-.72ZM117.75,189.75l-16.94-1.35.82-.98c2.43-2.91,5.55-4.38,9.29-4.38.2,0,.41,0,.61.01h.27s.18.2.18.2c1.78,1.86,3.34,3.59,4.76,5.29l1.02,1.21ZM38.92,204.41l41.3,12.01c4.2,1.22,8.56,1.84,12.94,1.84.47,0,.94,0,1.41-.02l19.59-.6c.11,0,.22,0,.33,0,3.78,0,7.24,1.91,9.26,5.11,3.89,6.17,10.29,10.15,17.54,10.93l37.28,3.97c1.28.14,2.59.21,3.88.21,4.84,0,9.57-.94,14.04-2.8l4.49-1.86h.1c8.76-.9,16.19-2.18,18.93-3.25.67-.26,1.34-.52,2.02-.78l.1-.04c7.86-3.03,16.77-6.46,17.69-15.5.33-3.21-.07-6.66-1.27-10.85l-.26-.92,35.87,2.87-58.84,40.89c-2.94,2.04-6.32,3.12-9.78,3.12-.59,0-1.19-.03-1.76-.1l-127.22-12.37-.13-.02-.11-.05s-.1-.05-.15-.07c-.11-.03-.23-.05-.35-.05-.11,0-.22.01-.32.04l-.11.03-67.22-6.54,30.77-25.19ZM8.14,288.13c-1.73-.17-3.14-1.69-3.43-3.7l-.84-5.78c-1.92-13.24-1.89-26.67.07-39.91l1.04-6.98,29.47,2.87-.22.76c-.56,1.99-2.47,9.3-3.25,19.82-.05.68.46,1.27,1.23,1.33.64,0,1.18-.5,1.23-1.14.89-11.89,3.26-19.66,3.28-19.74.01-.05.02-.1.03-.17l.1-.62,5.42.53-.2.75c-1.67,6.22-6.64,28.53-.26,54.37l.22.91-5.63-.55-.11-.45c-2.02-8-3.08-16.44-3.17-25.07,0-.67-.56-1.22-1.23-1.22h-.01c-.33,0-.64.14-.87.37-.23.24-.36.55-.35.88.08,8.36,1.07,16.55,2.92,24.34l.21.9-25.65-2.49ZM23.23,292.06l-.05,1.32-6.9.17.57-2.11,6.38.62ZM17.68,355.9c-.05,0-.11,0-.16,0-1.11,0-2.04-.91-2.27-2.21l-.42-2.39c-3.16-17.96-2.91-36.9.73-54.77l.1-.52,38.56-.96,10.63,1.03v1.32s-43.6,3.48-43.6,3.48c-.55.04-1.01.46-1.11,1-.17.88-4.02,21.74,0,47.25.09.59.62,1.04,1.22,1.04.04,0,.08,0,.13,0l106.75-10.85c.33-.03.63-.2.84-.46.21-.26.3-.59.26-.92-1.47-12.46-2.4-24.55-2.3-30.08v-.79s5.77,1.1,5.77,1.1v.54c.08,5.18.43,18.27,2.01,27.78.1.6.61,1.03,1.22,1.03h.11s58.4-4.87,58.4-4.87c.33-.03.64-.19.85-.44.21-.26.31-.59.28-.92l-1.21-11.32,3.45.66,1.84,11c.1.6.61,1.03,1.22,1.03.04,0,.08,0,.12,0l53.78-5.2c.67-.06,1.16-.64,1.11-1.31l-2.01-30.18c-.04-.65-.58-1.15-1.23-1.15h-11.17l3.75-4.51,34.21-.85.11.54c2.58,12.56,2.68,25.32.28,37.94l-.45,2.36-261.75,25.59ZM38.64,399.86l-1.28.22-6.3-17.61.34-4.37,1.27-.21,5.66,13.21c.04.09.09.17.17.28l.14.18v8.29ZM38.64,382.4l-1.27.26-5.37-12.52.63-8.17,4.32,9.4c.02.05.05.1.08.15l.11.2.29.65c.78,1.74,1.2,3.68,1.2,5.64v4.38ZM39.35,370.64c-.05-.1-.11-.19-.16-.29l-4.91-10.67,149.49-17.55,96.81-9.46c.54-.05.99-.46,1.09-.99l.62-3.26c2.55-13.46,2.34-27.07-.62-40.44l-.03-.09s-.02-.07-.02-.07l-8.65-23.9,5.83-4.89,29.89,70.05c.27.63-.02,1.35-.44,1.55l-.08.04-264.64,42.28c-.19.03-.37.04-.56.04-1.44,0-2.77-.85-3.62-2.34ZM309.81,360.08c0,1.2-.74,2.23-1.71,2.4l-264.51,46.36c-.11.02-.21.03-.32.03-.43,0-.86-.16-1.23-.47-.59-.5-.94-1.3-.94-2.16v-26.54c0-2.21,1.41-4.11,3.27-4.41l264.68-42.3.18.08c.34.15.58.57.58,1.04v25.97Z"/><path class="cls-1" d="M302.99,341.11c-.06,0-.13,0-.19.01l-255.49,40.24c-.6.09-1.04.61-1.04,1.22v20.98c0,.37.16.71.44.95.22.19.5.29.79.29.07,0,.15,0,.22-.02l255.07-45.74c.57-.1,1-.6,1.02-1.18l.42-15.47c.01-.37-.14-.72-.42-.96-.23-.2-.51-.31-.81-.31ZM301.37,356.77l-252.63,45.3v-18.45l252.98-39.84-.35,12.99Z"/><path class="cls-1" d="M180.25,141.53c-.25,0-.49.06-.68.17-.74.43-.75,1.28-.46,1.9,2.16,4.49,3.11,9.6,2.75,14.77-.03.39.2.69.33.83.27.29.66.47,1.02.47.86,0,1.31-.72,1.35-1.4.38-5.45-.72-11.03-3.17-16.14-.21-.45-.75-.61-1.14-.61Z"/><path class="cls-1" d="M120.22,103.57c-.36,0-.7.14-.95.4-.53.53-.53,1.38,0,1.91l22.18,22.18c.26.26.59.4.95.4s.7-.14.95-.4c.53-.53.53-1.38,0-1.91l-22.18-22.18c-.26-.26-.59-.4-.96-.4Z"/><path class="cls-1" d="M231.06,99.09c.25.25.59.4.95.4s.7-.14.95-.4c.53-.53.53-1.38,0-1.91l-15.07-15.07c-.25-.25-.59-.4-.95-.4s-.7.14-.95.4c-.53.53-.53,1.38,0,1.91l15.07,15.07Z"/><path class="cls-1" d="M131.99,104.29c.74,0,1.35-.61,1.35-1.35s-.61-1.35-1.35-1.35-1.35.61-1.35,1.35.61,1.35,1.35,1.35Z"/><path class="cls-1" d="M216.49,100.27c.74,0,1.35-.61,1.35-1.35s-.61-1.35-1.35-1.35-1.35.61-1.35,1.35.61,1.35,1.35,1.35Z"/></g></svg>